<svg xmlns="http://www.w3.org/2000/svg" xmlns:xlink="http://www.w3.org/1999/xlink" version="1.1" x="0px" y="0px" viewBox="0 0 1000 1250" style="enable-background:new 0 0 1000 1000;" xml:space="preserve"><g><path d="M974.5,430.1H25.5c-3.1,0-5.5,2.5-5.5,5.5s2.5,5.5,5.5,5.5h318.3c-14.3,2.3-24.4,6-28.1,7.2c-20,6.5-46.3,26.7-44.3,50.4   c1.4,15.7,8.8,21.6,24.3,21.3c14.1-0.2,16.9-27.1,2.5-23.7c-7.9,1.9-4,9.7-7.6,13.4c-3.1,3.1-9.1-3.8-10-6.2   c-5.2-14.4,8.9-28.1,18.6-35.9c39.1-31.5,103-21.8,139.1,8.3c5.8,4.9,9.9,9.5,14.5,15.7c5.2,7.2,9.5,7.7,17.9,10   c2,0.5,17.1,4.3,13.4-2.2c-3.3-5.7-6.5-11.9-11.2-16.4c-28.3-26.3-56.9-37.9-81.8-42H609c-25,4.1-53.6,15.7-81.8,42   c-4.8,4.4-8,10.7-11.2,16.4c-3.7,6.5,11.4,2.7,13.4,2.2c8.3-2.3,12.6-2.8,17.9-10c4.5-6.2,8.6-10.8,14.5-15.7   c36.1-30.2,100-39.8,139.1-8.3c9.7,7.8,23.9,21.5,18.6,35.9c-0.9,2.4-6.9,9.4-10,6.2c-3.6-3.7,0.3-11.6-7.6-13.4   c-14.4-3.4-11.5,23.5,2.5,23.7c15.5,0.2,22.9-5.7,24.3-21.3c2.1-23.8-24.2-43.9-44.3-50.4c-3.8-1.2-13.8-4.9-28.1-7.2h318.3   c3.1,0,5.5-2.5,5.5-5.5S977.6,430.1,974.5,430.1z"/><path d="M471.6,530.2c3.8,7.6,9,20.8-0.8,26.5c-2.3,1.3-10.1,2.6-9.9-2.4c0.2-4.7,8.1-5,7.7-11.5c-1-16.8-28.3-27.7-28.3-5.2   c-2.5,22.1,25.9,44.1,42.8,24.7c4.7-5.4,12.3-21.1,10-28.4C491.3,528.2,469,525.1,471.6,530.2z"/><path d="M537.2,516.6c2.3-0.7,22.1-10.6,14.9-13.7c-4-1.7-22.2,6.9-27.2,7.9c-8.3,1.8-41.6,1.8-49.9,0c-5-1.1-23.1-9.6-27.2-7.9   c-7.2,3.1,12.6,12.9,14.9,13.7c9.2,2.9,18.3,5.1,28,5.1c3.1,0,15.3,0,18.4,0C518.9,521.6,528,519.5,537.2,516.6z"/><path d="M531.4,542.9c-0.4,6.4,7.5,6.8,7.7,11.5c0.2,5.1-7.6,3.7-9.9,2.4c-9.8-5.8-4.6-19-0.8-26.5c2.6-5.1-19.7-2.1-21.5,3.7   c-2.3,7.3,5.3,23,10,28.4c16.8,19.5,45.3-2.6,42.8-24.7C559.7,515.1,532.4,526,531.4,542.9z"/><path d="M478.4,452.3c-2.3-1.4-9.4-5.4-11.3-0.7c-1.2,3,9,9.8,10.9,12.1c8.8,10.8,12.7,19.8,16.7,32.9c1.8,5.8,8.9,5.8,10.7,0   c4-13.1,7.9-22.1,16.7-32.9c1.8-2.3,12.1-9.1,10.9-12.1c-1.9-4.7-9-0.7-11.3,0.7c-4.7,2.8-14.1,18.7-14.1,5.5   c1.6-8.4-2.9-12.6-7.5-11.7c-4.6-0.9-9.1,3.3-7.5,11.7C492.5,471,483,455.1,478.4,452.3z"/></g><text x="0" y="1015" fill="#000000" font-size="5px" font-weight="bold" font-family="'Helvetica Neue', Helvetica, Arial-Unicode, Arial, Sans-serif"></text><text x="0" y="1020" fill="#000000" font-size="5px" font-weight="bold" font-family="'Helvetica Neue', Helvetica, Arial-Unicode, Arial, Sans-serif"></text></svg>