<svg xmlns="http://www.w3.org/2000/svg" xmlns:xlink="http://www.w3.org/1999/xlink" version="1.1" x="0px" y="0px" viewBox="0 0 1000 1250" style="enable-background:new 0 0 1000 1000;" xml:space="preserve"><path d="M934.7,486.5c-10.6-11.8-29.4-10.6-38.3,2.6l-0.1,0.2l-0.1-0.1c0.1,0.2,13.4,17,13.4,56.4c0,18.5-10.1,46.9-38.5,71.1  c-42.3,36-102.5,43.5-145.6,43.5c-52.6,0-101.8-16-142.8-45.5c35-25.7,75.4-35,102.4-35c52.5,0,75,28.2,75.8,29.3l22,29.3l0.6-36.6  c0-2-0.1-20.2-16.6-36.9c-17.3-17.6-45.4-26.5-83.6-26.5c-48.8,0-94.7,19-130.6,51c-10.9-10.8-21-22.8-30.1-35.9  c32.4-55.4,49.5-118.8,49.5-183.8c0-46.4-9.5-82.7-28.1-108c-16.9-22.9-35.7-29-44.1-29c-8.4,0-27.2,6.1-44.1,29  c-18.6,25.3-28.1,61.7-28.1,108c0,65,17.1,128.4,49.5,183.8c-9.1,13.1-19.2,25-30.1,35.9c-35.9-32.1-81.8-51-130.6-51  c-38.1,0-66.3,8.9-83.6,26.5c-16.5,16.7-16.6,34.9-16.6,36.9l0.6,36.7l22-29.3c0.9-1.2,23.4-29.4,75.9-29.4c27,0,67.4,9.3,102.4,35  c-41,29.5-90.1,45.5-142.8,45.5c-78,0-122.2-23.7-145.6-43.5c-28.4-24.1-38.5-52.5-38.5-71.1c0-39.4,13.3-56.2,13.4-56.4l-0.1,0.1  l-0.1-0.2c-8.9-13.1-27.7-14.4-38.3-2.6c-8.7,9.7-16.2,24.2-16.2,45.2c0,9.7,1.7,60.5,35.4,106.8c16.4,22.5,37.7,40.3,63.4,52.8  c30.2,14.7,66.5,22.1,107.9,22.1c51.5,0,100.6-13.1,145.8-38.8c16-9.1,31.4-19.8,45.8-31.9c24.6,29.9,38,68.3,39.9,114.7  c0.3,6.8,5.9,12.2,12.7,12.2h0.3c6.8,0,12.4-5.4,12.7-12.2c2-46.4,15.4-84.8,39.9-114.7c14.4,12,29.8,22.8,45.8,31.9  c45.2,25.8,94.3,38.8,145.8,38.8c41.5,0,77.8-7.5,107.9-22.1c25.7-12.5,47-30.3,63.4-52.8c33.7-46.3,35.4-97.1,35.4-106.8  C950.9,510.7,943.4,496.2,934.7,486.5z M469.2,370.3c0-67.1,22.4-86.9,30.9-91.9c3.1,1.8,8,5.6,13.1,13c8.1,11.8,17.7,35.1,17.7,79  c0,52.1-10.6,101.4-30.8,143.8C479.8,471.7,469.2,422.4,469.2,370.3z M500,661.3c-7.1-15.7-15.9-30.2-26.1-43.4  c9.2-9.6,17.9-19.8,26.1-30.6c8.1,10.7,16.8,20.9,26.1,30.6C515.8,631.1,507.1,645.6,500,661.3z"/><text x="0" y="1015" fill="#000000" font-size="5px" font-weight="bold" font-family="'Helvetica Neue', Helvetica, Arial-Unicode, Arial, Sans-serif">Created by Alvaro Cabrera</text><text x="0" y="1020" fill="#000000" font-size="5px" font-weight="bold" font-family="'Helvetica Neue', Helvetica, Arial-Unicode, Arial, Sans-serif">from the Noun Project</text></svg>