<svg xmlns="http://www.w3.org/2000/svg" xmlns:xlink="http://www.w3.org/1999/xlink" version="1.1" x="0px" y="0px" viewBox="0 0 1000 1250" style="enable-background:new 0 0 1000 1000;" xml:space="preserve"><path d="M911.3,500c-6,0-6.8,2.6-6.8,2.6c0.9-5.8-5.8-10.7-11.5-11.3c-5.7-0.6-10.6-8.4-10.6-8.4c-4.4,1.1-3.6,8.8-3.6,8.8  c-2.6-3.3-8.6-3.7-8.6-3.7s3.4-1.3,3.4-4.7c0-5.7-4.6-6.4-6-6.4c-1.4,0-7.4,0.3-7.4,7.1c0,11.6,16.2,10.6,16.2,10.6  c-3.5,9.2,5.4,8.5,5.4,8.5c-4.2,6.5,2.3,11,2.3,11c1.4-2.3,4.9-1.7,4.9-1.7c0.3,1.7-0.8,2.9-0.8,2.9c6.1,0,1.7-6.4,1.7-6.4  s6.1,0.2,6.1,5.1c0,4.9-5,6-6.9,6c-1.9,0-7.1,0.6-12.7-8c-6.4-9.9-17.2-18.3-17.2-18.3c1.6-3.3-0.8-7.5-0.8-7.5h-4.7  c0,0,4.4-1.7,4.4-5.2c0-3.2-1.8-5.2-5.2-5.2c-3.4,0-4.9,2.4-4.9,5.5c0,3.1,3.9,5,3.9,5H511.3l-12.1-9.3l-12.1,9.3H146.6  c0,0,3.9-1.8,3.9-5c0-3.1-1.6-5.5-4.9-5.5c-3.4,0-5.2,2-5.2,5.2c0,3.5,4.4,5.2,4.4,5.2h-4.7c0,0-2.3,4.2-0.8,7.5  c0,0-10.8,8.3-17.2,18.3c-5.5,8.6-10.8,8-12.7,8c-1.9,0-6.9-1.1-6.9-6c0-4.9,6.1-5.1,6.1-5.1s-4.3,6.4,1.7,6.4c0,0-1.1-1.2-0.8-2.9  c0,0,3.5-0.5,4.9,1.7c0,0,6.4-4.4,2.3-11c0,0,8.8,0.7,5.4-8.5c0,0,16.2,1,16.2-10.6c0-6.9-6-7.1-7.4-7.1s-6,0.7-6,6.4  c0,3.4,3.4,4.7,3.4,4.7s-6,0.4-8.6,3.7c0,0,0.9-7.7-3.6-8.8c0,0-4.9,7.8-10.6,8.4c-5.7,0.6-12.4,5.5-11.5,11.3c0,0-0.9-2.6-6.8-2.6  c-6,0-5.4,5.1-5.4,5.1s-0.1,5,8.3,3.5c0,0-2.3,17.8,16.6,17.8c24.5,0,16.5-35.1,63.6-35.1H491l8.2-11.1l8.2,11.1H828  c47.2,0,39.1,35.1,63.6,35.1c19,0,16.6-17.8,16.6-17.8c8.4,1.5,8.3-3.5,8.3-3.5S917.3,500,911.3,500z M95.8,511.8  c0-14.6,22.9-18.2,22.9-18.2c-26.3,12.5-20.2,23.8-20.2,23.8S95.8,516.7,95.8,511.8z M900,517.5c0,0,6.1-11.4-20.2-23.8  c0,0,22.9,3.7,22.9,18.2C902.7,516.7,900,517.5,900,517.5z"/><text x="0" y="1015" fill="#000000" font-size="5px" font-weight="bold" font-family="'Helvetica Neue', Helvetica, Arial-Unicode, Arial, Sans-serif"></text><text x="0" y="1020" fill="#000000" font-size="5px" font-weight="bold" font-family="'Helvetica Neue', Helvetica, Arial-Unicode, Arial, Sans-serif"></text></svg>