<svg xmlns="http://www.w3.org/2000/svg" xmlns:xlink="http://www.w3.org/1999/xlink" xmlns:xodm="http://www.corel.com/coreldraw/odm/2003" xml:space="preserve" version="1.1" style="shape-rendering:geometricPrecision;text-rendering:geometricPrecision;image-rendering:optimizeQuality;" viewBox="0 0 60000 75000" x="0px" y="0px" fill-rule="evenodd" clip-rule="evenodd"><defs><style type="text/css">
   
    .fil0 {fill:black;fill-rule:nonzero}
   
  </style></defs><g><path class="fil0" d="M36735.54 42171.1c99.24,196.75 20.19,436.7 -176.56,535.94 -196.75,99.24 -436.7,20.19 -535.94,-176.56 -127.21,-252.83 -324.69,-465.28 -567.24,-612.71 -235.34,-143.05 -515.62,-225.72 -818.21,-225.72 -427.95,0 -814.24,167.95 -1092.78,439.47 -275.54,268.59 -445.98,639.97 -445.98,1050.41 0,671.38 278.94,1278.99 729.9,1718.58 453.97,442.52 1082.6,716.24 1778.24,716.24 695.64,0 1324.27,-273.72 1778.24,-716.24 450.96,-439.59 729.9,-1047.2 729.9,-1718.58 0,-932.31 -387.44,-1776.15 -1013.83,-2386.75 -53.22,-51.88 -108.2,-102.05 -164.79,-150.48l-24.93 -20.75c-3.77,-3.15 -7.43,-6.38 -11.05,-9.63 -607.96,-506.34 -1398.21,-812.15 -2262.92,-812.15 -609.56,0 -1176.56,146.9 -1692.44,409.85 -1008.7,514.14 -1831.14,1471.48 -2405.18,2648.74 538.08,1233.76 833.32,2649.07 833.32,4056.01 0,1372.04 -279.98,2741.2 -888.02,3934.12 -75.09,147.59 -229.27,228.56 -384.69,217.55 -155.41,11.01 -309.59,-69.96 -384.68,-217.55 -608.04,-1192.92 -888.02,-2562.08 -888.02,-3934.12 0,-1406.94 295.24,-2822.25 833.32,-4056.01 -574.04,-1177.26 -1396.48,-2134.6 -2405.18,-2648.74 -515.88,-262.95 -1082.88,-409.85 -1692.44,-409.85 -855.46,0 -1638.05,299.28 -2243.35,795.94 -8.86,8.95 -18.19,17.59 -28.05,25.84 -21.81,18.31 -44.5,36.96 -67.95,55.88 -42.42,37.45 -83.88,75.91 -124.34,115.35 -626.39,610.6 -1013.83,1454.44 -1013.83,2386.75 0,671.38 278.94,1278.99 729.9,1718.58 453.97,442.52 1082.6,716.24 1778.24,716.24 695.64,0 1324.27,-273.72 1778.24,-716.24 450.96,-439.59 729.9,-1047.2 729.9,-1718.58 0,-410.44 -170.44,-781.82 -445.98,-1050.41 -278.54,-271.52 -664.83,-439.47 -1092.78,-439.47 -302.58,0 -582.87,82.67 -818.21,225.72 -242.54,147.43 -440.03,359.88 -567.24,612.71 -99.24,196.75 -339.19,275.8 -535.94,176.56 -196.75,-99.24 -275.8,-339.19 -176.56,-535.94 193.47,-384.51 495.39,-708.56 867.24,-934.59 359.15,-218.31 781.08,-344.46 1230.71,-344.46 642.77,0 1225.91,255.13 1649.04,667.59 426.14,415.39 689.72,988.99 689.72,1622.29 0,894.24 -372.08,1704.07 -973.64,2290.46 -598.56,583.46 -1424.03,944.36 -2334.5,944.36 -910.47,0 -1735.94,-360.9 -2334.5,-944.36 -601.56,-586.39 -973.64,-1396.22 -973.64,-2290.46 0,-542.3 105.93,-1060.56 298.71,-1536.2 -83.41,33.86 -167.41,65.54 -251.6,94.56 -595.18,205.19 -1211.28,282.64 -1734.76,90.08 -833.09,-306.45 -1186.57,-937.46 -1213.52,-1563.83 -14.36,-333.89 68.17,-665.87 222.94,-944.65 160.98,-289.96 402.25,-526.54 698.38,-656.49 467.81,-205.31 1044.87,-148.22 1620.64,375.32 163.09,148.42 174.98,400.97 26.56,564.06 -148.42,163.09 -400.97,174.98 -564.06,26.56 -302.11,-274.7 -568.3,-320.73 -764.38,-234.68 -130.04,57.06 -241.07,170.09 -320.26,312.73 -85.39,153.81 -130.91,337.52 -122.94,522.77 14.32,332.84 215.49,673.06 691.64,848.21 327.18,120.35 760.75,55.22 1200.38,-96.34 640.19,-220.7 1268.67,-618 1651.06,-927.41 755.47,-655.89 1749.97,-1054.45 2838.73,-1054.45 740.51,0 1428.94,178.27 2054.94,497.35 1011.65,515.65 1853.7,1399.17 2482.06,2488.17 628.37,-1089 1470.42,-1972.52 2482.07,-2488.17 626,-319.08 1314.43,-497.35 2054.94,-497.35 1056.98,0 2025.11,375.66 2771.96,997.72 4.9,3.73 9.74,7.57 14.51,11.56 375.16,314.9 1034.08,740.98 1705.89,972.58 439.63,151.56 873.2,216.69 1200.38,96.34 476.16,-175.16 677.32,-515.37 691.64,-848.21 7.97,-185.25 -37.55,-368.95 -122.94,-522.77 -79.19,-142.64 -190.22,-255.67 -320.26,-312.73 -196.08,-86.05 -462.27,-40.03 -764.38,234.68 -163.09,148.42 -415.64,136.53 -564.06,-26.56 -148.42,-163.09 -136.53,-415.64 26.56,-564.06 575.77,-523.54 1152.82,-580.63 1620.64,-375.32 296.12,129.94 537.4,366.53 698.38,656.49 154.77,278.78 237.3,610.76 222.94,944.65 -26.95,626.37 -380.44,1257.38 -1213.52,1563.83 -523.48,192.56 -1139.58,115.11 -1734.76,-90.08 -85.23,-29.38 -170.27,-61.49 -254.69,-95.82 193.1,475.98 299.23,994.68 299.23,1537.46 0,894.24 -372.08,1704.07 -973.64,2290.46 -598.56,583.46 -1424.03,944.36 -2334.5,944.36 -910.47,0 -1735.94,-360.9 -2334.5,-944.36 -601.56,-586.39 -973.64,-1396.22 -973.64,-2290.46 0,-633.3 263.58,-1206.9 689.72,-1622.29 423.13,-412.46 1006.27,-667.59 1649.04,-667.59 449.62,0 871.56,126.15 1230.71,344.46 371.85,226.03 673.77,550.08 867.24,934.59zm-6634.96 1776.95c-307.48,936.66 -472.7,1953.96 -472.7,2968.72 0,968.45 150.92,1931.53 472.7,2815.66 321.78,-884.13 472.71,-1847.21 472.71,-2815.66 0,-1014.76 -165.22,-2032.06 -472.71,-2968.72zm10835.08 -84.6c-220.91,0 -400,-179.09 -400,-400 0,-220.91 179.09,-400 400,-400l13908.32 0c220.91,0 400,179.09 400,400 0,220.91 -179.09,400 -400,400l-13908.32 0zm-21883.06 -800c220.91,0 400,179.09 400,400 0,220.91 -179.09,400 -400,400l-13908.32 0c-220.91,0 -400,-179.09 -400,-400 0,-220.91 179.09,-400 400,-400l13908.32 0zm16970.44 -25582.18c99.24,-196.75 339.19,-275.8 535.94,-176.56 196.75,99.24 275.8,339.19 176.56,535.94 -193.47,384.51 -495.39,708.56 -867.24,934.59 -359.15,218.31 -781.09,344.46 -1230.71,344.46 -642.77,0 -1225.91,-255.13 -1649.04,-667.59 -426.14,-415.39 -689.72,-988.99 -689.72,-1622.29 0,-894.24 372.08,-1704.07 973.64,-2290.46 598.56,-583.46 1424.03,-944.36 2334.5,-944.36 910.47,0 1735.94,360.9 2334.5,944.36 601.56,586.39 973.64,1396.22 973.64,2290.46 0,542.78 -106.13,1061.48 -299.23,1537.46 84.42,-34.34 169.46,-66.44 254.69,-95.82 595.18,-205.19 1211.28,-282.64 1734.76,-90.08 833.08,306.45 1186.57,937.46 1213.52,1563.83 14.36,333.89 -68.17,665.87 -222.94,944.65 -160.98,289.96 -402.25,526.54 -698.38,656.49 -467.82,205.31 -1044.88,148.21 -1620.64,-375.32 -163.09,-148.42 -174.98,-400.97 -26.56,-564.06 148.42,-163.09 400.97,-174.98 564.06,-26.56 302.11,274.71 568.3,320.73 764.38,234.68 130.04,-57.06 241.07,-170.09 320.26,-312.73 85.39,-153.81 130.91,-337.52 122.94,-522.77 -14.32,-332.84 -215.48,-673.05 -691.64,-848.21 -327.18,-120.35 -760.75,-55.22 -1200.38,96.34 -671.81,231.6 -1330.73,657.68 -1705.89,972.58 -4.77,3.99 -9.61,7.83 -14.51,11.56 -746.85,622.06 -1714.98,997.72 -2771.96,997.72 -740.51,0 -1428.94,-178.27 -2054.94,-497.35 -1011.65,-515.65 -1853.7,-1399.17 -2482.07,-2488.17 -628.36,1089 -1470.41,1972.52 -2482.06,2488.17 -626,319.08 -1314.43,497.35 -2054.94,497.35 -1088.76,0 -2083.26,-398.56 -2838.73,-1054.45 -382.39,-309.41 -1010.87,-706.71 -1651.06,-927.41 -439.63,-151.56 -873.2,-216.69 -1200.38,-96.34 -476.16,175.16 -677.32,515.37 -691.64,848.21 -7.97,185.25 37.55,368.96 122.94,522.77 79.19,142.65 190.23,255.67 320.26,312.73 196.09,86.06 462.27,40.03 764.38,-234.68 163.09,-148.42 415.64,-136.53 564.06,26.56 148.42,163.09 136.53,415.64 -26.56,564.06 -575.77,523.54 -1152.83,580.63 -1620.64,375.32 -296.13,-129.95 -537.4,-366.53 -698.38,-656.49 -154.77,-278.78 -237.3,-610.76 -222.94,-944.65 26.95,-626.37 380.43,-1257.38 1213.52,-1563.83 523.48,-192.56 1139.58,-115.11 1734.76,90.08 84.19,29.02 168.19,60.7 251.6,94.56 -192.78,-475.64 -298.71,-993.9 -298.71,-1536.2 0,-894.24 372.08,-1704.07 973.64,-2290.46 598.56,-583.46 1424.03,-944.36 2334.5,-944.36 910.47,0 1735.94,360.9 2334.5,944.36 601.56,586.39 973.64,1396.22 973.64,2290.46 0,633.3 -263.58,1206.9 -689.72,1622.29 -423.13,412.46 -1006.27,667.59 -1649.04,667.59 -449.63,0 -871.56,-126.15 -1230.71,-344.46 -371.85,-226.03 -673.77,-550.08 -867.24,-934.59 -99.24,-196.75 -20.19,-436.7 176.56,-535.94 196.75,-99.24 436.7,-20.19 535.94,176.56 127.21,252.83 324.7,465.28 567.24,612.71 235.34,143.05 515.63,225.72 818.21,225.72 427.95,0 814.24,-167.95 1092.78,-439.47 275.54,-268.59 445.98,-639.97 445.98,-1050.41 0,-671.38 -278.93,-1278.99 -729.9,-1718.58 -453.97,-442.52 -1082.6,-716.24 -1778.24,-716.24 -695.64,0 -1324.27,273.72 -1778.24,716.24 -450.97,439.59 -729.9,1047.2 -729.9,1718.58 0,932.31 387.44,1776.15 1013.83,2386.75 40.46,39.44 81.92,77.9 124.34,115.35 23.45,18.92 46.14,37.57 67.95,55.88 9.86,8.25 19.19,16.89 28.05,25.84 605.3,496.66 1387.89,795.94 2243.35,795.94 609.56,0 1176.56,-146.9 1692.44,-409.85 1008.7,-514.14 1831.14,-1471.48 2405.18,-2648.74 -538.08,-1233.76 -833.32,-2649.07 -833.32,-4056.01 0,-1372.04 279.98,-2741.2 888.02,-3934.12 75.09,-147.59 229.27,-228.56 384.68,-217.55 155.42,-11.01 309.6,69.96 384.69,217.55 608.04,1192.92 888.02,2562.08 888.02,3934.12 0,1406.94 -295.24,2822.25 -833.32,4056.01 574.04,1177.26 1396.48,2134.6 2405.18,2648.74 515.88,262.95 1082.88,409.85 1692.44,409.85 864.71,0 1654.96,-305.81 2262.92,-812.15 3.62,-3.25 7.28,-6.48 11.05,-9.63l24.93 -20.75c56.59,-48.43 111.57,-98.6 164.79,-150.48 626.39,-610.6 1013.83,-1454.44 1013.83,-2386.75 0,-671.38 -278.93,-1278.99 -729.9,-1718.58 -453.97,-442.52 -1082.6,-716.24 -1778.24,-716.24 -695.64,0 -1324.27,273.72 -1778.24,716.24 -450.97,439.59 -729.9,1047.2 -729.9,1718.58 0,410.44 170.44,781.82 445.98,1050.41 278.54,271.52 664.83,439.47 1092.78,439.47 302.59,0 582.87,-82.67 818.21,-225.72 242.54,-147.43 440.03,-359.88 567.24,-612.71zm-6395.16 -4386.29c0,1014.76 165.22,2032.06 472.7,2968.72 307.49,-936.66 472.71,-1953.96 472.71,-2968.72 0,-968.45 -150.93,-1931.53 -472.71,-2815.66 -321.78,884.13 -472.7,1847.21 -472.7,2815.66zm11307.78 3853.32c-220.91,0 -400,-179.09 -400,-400 0,-220.91 179.09,-400 400,-400l13908.32 0c220.91,0 400,179.09 400,400 0,220.91 -179.09,400 -400,400l-13908.32 0zm-21883.06 -800c220.91,0 400,179.09 400,400 0,220.91 -179.09,400 -400,400l-13908.32 0c-220.91,0 -400,-179.09 -400,-400 0,-220.91 179.09,-400 400,-400l13908.32 0z"/></g><text x="0" y="60015" fill="#000000" font-size="5px" font-weight="bold" font-family="'Helvetica Neue', Helvetica, Arial-Unicode, Arial, Sans-serif"></text><text x="0" y="60020" fill="#000000" font-size="5px" font-weight="bold" font-family="'Helvetica Neue', Helvetica, Arial-Unicode, Arial, Sans-serif"></text></svg>