<svg xmlns="http://www.w3.org/2000/svg" xmlns:xlink="http://www.w3.org/1999/xlink" version="1.1" x="0px" y="0px" viewBox="0 0 1000 1250" style="enable-background:new 0 0 1000 1000;" xml:space="preserve"><path d="M932.6,477.7H534.2c-1.9-7.7-8.8-13.4-17-13.4c-8.2,0-15.1,5.7-17,13.4h-9.9c-2-12.7-13-22.4-26.3-22.4  c-13.3,0-24.3,9.7-26.3,22.4h-9.9c-1.9-7.7-8.8-13.4-17-13.4c-8.2,0-15.1,5.7-17,13.4H23.9c-2.5,0-4.4,2.2-4.2,4.6l0,0  c0.2,2.1,2,3.7,4.2,3.7h369.9c1.9,7.7,8.8,13.4,17,13.4c8.2,0,15.1-5.7,17-13.4h9.9c2,12.7,13,22.4,26.3,22.4  c13.3,0,24.3-9.7,26.3-22.4h9.9c1.9,7.7,8.8,13.4,17,13.4c8.2,0,15.1-5.7,17-13.4h398.4c2.5,0,4.4-2.2,4.2-4.6l0,0  C936.5,479.4,934.7,477.7,932.6,477.7z M464,496.8c-8.2,0-14.8-6.6-14.8-14.8c0-8.2,6.6-14.8,14.8-14.8c8.2,0,14.8,6.6,14.8,14.8  C478.8,490.1,472.2,496.8,464,496.8z"/><text x="0" y="1015" fill="#000000" font-size="5px" font-weight="bold" font-family="'Helvetica Neue', Helvetica, Arial-Unicode, Arial, Sans-serif">Created by Alvaro Cabrera</text><text x="0" y="1020" fill="#000000" font-size="5px" font-weight="bold" font-family="'Helvetica Neue', Helvetica, Arial-Unicode, Arial, Sans-serif">from the Noun Project</text></svg>