<svg xmlns="http://www.w3.org/2000/svg" xmlns:xlink="http://www.w3.org/1999/xlink" version="1.1" x="0px" y="0px" viewBox="0 0 1000 1250" style="enable-background:new 0 0 1000 1000;" xml:space="preserve"><g><path d="M482.3,505c5.4,0,11.3-9.7,17.1-9.5l0,0l0,0c5.8-0.2,11.7,9.5,17.1,9.5c14,0,31.1-28.6,38.2-40.7   c11.3-19.2,22.7-48,14.4-70.1c-6.8-18.2-24.3-27-40.8-35.2c-24.3-12-33.5-12-57.8,0c-16.5,8.1-34,17-40.8,35.2   c-8.3,22.1,3.1,50.8,14.4,70.1C451.2,476.4,468.3,505,482.3,505z"/><path d="M537.4,518.3c11.6,17.5,68.2-19.6,76-26.8c21.7-19.9,35.7-46.5,44.1-74.2c2.2-7.1,13.9-32.8,8.5-40.8   c-9.1-13.3-29.8-0.5-40.7,1.2c-9.3,1.4-41.5-6-37.3,4.8C611.3,441.6,540.4,522.8,537.4,518.3z"/><path d="M935.3,515.6c-5.6-3-19.9-9.1-21.9-14.4c-1.6-4.1,1.6-8.6,0.8-11.6c-4-14.6-1.6-8.1-17.9-10.6c-11.9-1.8-18.4-3.9-30.6-2   c-7.9,1.2-25.4,9.7-32.2,6.2c-12.1-6.3,3.8-13.6,10.3-17.4c12.2-7.1,31.9-8.2,39.7-21.5c7.1-12.2,4.8-6.3-2.3-13.7   c-7.4-7.6-11.1,4.3-12.2-10.7c-0.9-11.6,18.2-24.9,9.1-39.8c-13.1-21.6-42.8,12.1-56.5,20.4c-10.1,6.1-18.3,4.5-25.6,16   c-6.6,10.3-5.3,25-8.8,36.8c-2.1,7.2-33.6,71.2-40.8,48.7c-5.5-17.3,34.6-42.6,28.7-65.4c-0.4-1.6-13.1-14.6-15-18.3   c-6-11.7-7.5-19.8-17.7-29.1c-6-5.5-26.7-21.2-35.9-14.8c-7.8,5.4,0.2,17.5,2.1,25c2.8,10.8,7.2,24.4-4.8,29   c-13.5,5.1-10.2-11.1-19.3,5.8c-5.9,11-2.7,28.7-5.6,40.5c-2.7,10.6-9,22.6-15.3,31.2c-31.3,42.5-89.1,60.8-127.7,96.2   c-10.5,9.6-16.9,26.6-24.4,10.1c-3.1-6.9-0.2-29.8,4.2-36c5.1-7.3,56.4-29.6,52.1-43.3c-3.1-10-38.6,4.9-44.8,2.5   c-9.8-3.7-9-23.8-22.2-23h-2.7c-13.2-0.8-12.3,19.3-22.2,23c-6.3,2.3-41.7-12.5-44.8-2.5c-4.3,13.7,47,36,52.1,43.3   c4.3,6.2,7.3,29.1,4.2,36c-7.5,16.5-13.8-0.4-24.4-10.1c-38.7-35.4-96.4-53.7-127.7-96.2c-6.3-8.6-12.7-20.6-15.3-31.2   c-2.9-11.8,0.3-29.5-5.6-40.5c-9.1-16.8-5.8-0.7-19.3-5.8c-12-4.6-7.7-18.2-4.8-29c2-7.5,9.9-19.6,2.1-25   c-9.2-6.4-29.9,9.3-35.9,14.8c-10.2,9.3-11.7,17.4-17.7,29.1c-1.9,3.7-14.6,16.8-15,18.3c-5.9,22.9,34.2,48.2,28.7,65.4   c-7.2,22.5-38.6-41.5-40.8-48.7c-3.5-11.7-2.2-26.4-8.8-36.8c-7.3-11.4-15.5-9.9-25.6-16c-13.7-8.3-43.5-42-56.5-20.4   c-9,14.9,10,28.2,9.1,39.8c-1.1,14.9-4.9,3-12.2,10.7c-7.1,7.4-9.5,1.4-2.3,13.7c7.8,13.3,27.5,14.4,39.7,21.5   c6.5,3.8,22.5,11.1,10.3,17.4c-6.8,3.5-24.3-5-32.2-6.2c-12.2-1.9-18.8,0.2-30.6,2c-16.3,2.5-13.9-4-17.9,10.6   c-0.8,2.9,2.4,7.5,0.8,11.6c-2,5.3-16.3,11.4-21.9,14.4c-6.1,3.3-28.9,9.3-22.6,19.2c3.8,5.9,27.4,1.5,33.1,1.4   c5.6-0.2,17.3-2.1,21.4-0.4c3.5,1.5,3.5,8.8,4.6,9.1c22.4,5.9,63.9-8.3,89-16.7c7.1-2.4,39.1-13.5,33.2,6.2   c-1.7,5.8-23,12.6-23.2,8.8c-26.6,0-28.8,11-48.2,26.2c-10,7.8-19.5,12.6-29.9,18.8c-5.9,3.5-13.7-1.3-12.1,9.1   c0.8,4.9,20,6.7,22.2,7.2c14.1,2.9,29,6.2,43.5,4.5c2.7-0.3,12.7-4.6,16.7-4c6.8,1.1,7.8,6.2,12.4,7.2c24.5,5.4,47-25.3,68.4-38.4   c15.2-9.3,57-17.7,27.4,2.9c-21.2,14.7-50.7,18.9-57,48.7c-2.1,9.7-6.9,9.6,3.3,13c2.8,0.9,37.9-4.7,41.8-5.4   c15.8-3.2,21.5-10.4,33.6-5.9c1.1,0.4,2.6,8.1,6,9.3c7.8,2.6,14-5.3,18.7-10c23.3-22.9,34.5-36.3,69.8-24.2   c12.9,4.4,24.7,11.5,36,19.2c11.5,7.8,22.9,22.1,35.9,26.6c4.1,1.4,8,1.9,11.8,1.8l0,0c3.8,0.1,7.7-0.4,11.8-1.8   c13-4.5,24.5-18.7,35.9-26.6c11.2-7.7,23-14.8,36-19.2c35.2-12.1,46.5,1.3,69.8,24.2c4.8,4.7,11,12.6,18.7,10   c3.5-1.1,4.9-8.9,6-9.3c12.1-4.5,17.8,2.7,33.6,5.9c3.9,0.8,39,6.4,41.8,5.4c10.2-3.4,5.4-3.3,3.3-13c-6.3-29.8-35.8-34.1-57-48.7   c-29.6-20.5,12.3-12.1,27.4-2.9c21.5,13.1,44,43.8,68.4,38.4c4.7-1,5.6-6.2,12.4-7.2c3.9-0.6,14,3.7,16.7,4   c14.5,1.7,29.4-1.6,43.5-4.5c2.2-0.4,21.4-2.3,22.2-7.2c1.7-10.4-6.1-5.6-12.1-9.1c-10.4-6.2-19.9-11.1-29.9-18.8   c-19.4-15.2-21.7-26.2-48.2-26.2c-0.3,3.8-21.5-3-23.2-8.8c-5.9-19.6,26.1-8.5,33.2-6.2c25.1,8.3,66.6,22.5,89,16.7   c1.1-0.3,1.1-7.7,4.6-9.1c4.1-1.7,15.8,0.3,21.4,0.4c5.8,0.2,29.4,4.6,33.1-1.4C964.2,524.9,941.4,519,935.3,515.6z"/><path d="M385.4,491.5c7.8,7.1,64.5,44.3,76,26.8c-3,4.5-73.8-76.7-50.6-135.8c4.2-10.8-27.9-3.4-37.3-4.8   c-10.9-1.7-31.6-14.5-40.7-1.2c-5.4,7.9,6.3,33.7,8.5,40.8C349.7,445,363.7,471.6,385.4,491.5z"/></g><text x="0" y="1015" fill="#000000" font-size="5px" font-weight="bold" font-family="'Helvetica Neue', Helvetica, Arial-Unicode, Arial, Sans-serif"></text><text x="0" y="1020" fill="#000000" font-size="5px" font-weight="bold" font-family="'Helvetica Neue', Helvetica, Arial-Unicode, Arial, Sans-serif"></text></svg>