<svg xmlns="http://www.w3.org/2000/svg" xmlns:xlink="http://www.w3.org/1999/xlink" version="1.1" x="0px" y="0px" viewBox="0 0 1000 1250" style="enable-background:new 0 0 1000 1000;" xml:space="preserve"><path d="M535.8,415.9h451.4v-3.8H535.8v0c-5,0-19.9-1.8-27.1-9.5c8.1,25.5,3.6,45.6-7.4,60c-11-14.3-15.5-34.4-7.4-60  c-7.1,7.6-21.3,9.4-26.7,9.5v0H12.7v3.8h454v0c0.1,0,0.1,0,0.2,0h0.2v0c5-0.1,12.7-1.1,18.3-3.5c-1.3,5-2.3,13.3-2.3,19.1  c0,14.9,5.9,26.9,14,35.9c-5.2,5.4-11.4,9.8-18.1,13.2c-3.4-0.7-6.9-0.7-10,0.3c-5.9,1.9-5.7,7.9,0.9,6.8c3.1-0.5,6.6-1.5,10.3-2.9  c7.1,2,13.1,7,13.1,14.3c0,6.9-4.1,10.5-7.9,12.3c-2.4-1-4.8-1.6-7.1-1.6c-6.6,0-6.6,6.5,0.9,6.5c1.6,0,3.6-0.3,5.6-1.1  c5.7,2.8,10.9,7,14.8,12.7c-4.3,7.3-7.1,16.2-7.1,25.9c0,10.8,2.3,19.7,6,26.6c-5.6,6.6-13.4,10-21,10c-14.6,0-26.9-9.1-26.9-24.3  c0-10.4,7.4-18.5,13.5-18.5c5.6,0,9.3,2.7,10.1,5.6c0.7,2.9,3.6,4.6,3.6,0c0-29.9-27.7-40.9-55.1-47.7c-54.3-13.6-72.1-27.7-72.1-73  l-337.8,0v7.3l334.8,0c0,45.2,44.5,65.1,71.9,71.9c22.5,5.7,45.4,7.7,54.4,32.2c-2.2-1.9-6.6-2.5-9-2.5c-5.3,0-17.1,3.8-17.1,24.4  c0,17.3,13.6,31.3,30.4,31.3c8.9,0,17.2-4.3,23.1-12.5c5.9,8.1,14.3,12.5,23.1,12.5c16.8,0,30.4-14,30.4-31.3  c0-20.6-11.8-24.4-17.1-24.4c-2.4,0-6.9,0.6-9,2.5c9-24.5,31.9-26.5,54.4-32.2c27.3-6.8,71.9-26.7,71.9-71.9l332.2,0l0-7.3l-335.2,0  c0,45.4-17.8,59.4-72.1,73c-27.4,6.9-55.1,17.8-55.1,47.7c0,4.6,2.9,2.9,3.6,0c0.7-2.9,4.5-5.6,10.1-5.6c6.1,0,13.5,8.1,13.5,18.5  c0,15.2-12.4,24.3-26.9,24.3c-7.6,0-15.4-3.3-21-10c3.7-6.9,6-15.8,6-26.6c0-9.7-2.8-18.6-7.1-25.9c3.9-5.8,9.1-9.9,14.8-12.7  c2.1,0.8,4.1,1.1,5.6,1.1c7.5,0,7.5-6.5,0.9-6.5c-2.3,0-4.7,0.5-7.1,1.6c-3.8-1.8-7.9-5.4-7.9-12.3c0-7.4,6-12.3,13.1-14.3  c3.7,1.4,7.2,2.4,10.3,2.9c6.6,1,6.8-5,0.9-6.8c-3.2-1-6.7-1.1-10-0.3c-6.7-3.4-12.9-7.8-18.1-13.2c8.1-9.1,14-21.1,14-35.9  c0-5.8-1.1-14.1-2.3-19.1C522.9,414.9,530.8,415.9,535.8,415.9L535.8,415.9z M507.1,554.7c0,9.2-2.2,16.7-5.8,22.3  c-3.6-5.7-5.8-13.1-5.8-22.3c0-9.8,2.2-17.7,5.8-23.9C504.9,537,507.1,544.9,507.1,554.7z M517.5,482.8c-6.3,3.2-11.1,9-11.1,16.1  c0,7.3,3.3,11.9,7.2,14.5c-4.5,2.7-8.8,7-12.4,12.3c-3.6-5.3-7.9-9.6-12.4-12.3c3.9-2.7,7.2-7.2,7.2-14.5c0-7-4.8-12.9-11.1-16.1  c5.5-2.7,11.1-6.4,16.2-11.1C506.4,476.4,512,480.1,517.5,482.8z"/><text x="0" y="1015" fill="#000000" font-size="5px" font-weight="bold" font-family="'Helvetica Neue', Helvetica, Arial-Unicode, Arial, Sans-serif"></text><text x="0" y="1020" fill="#000000" font-size="5px" font-weight="bold" font-family="'Helvetica Neue', Helvetica, Arial-Unicode, Arial, Sans-serif"></text></svg>