<svg xmlns="http://www.w3.org/2000/svg" xmlns:xlink="http://www.w3.org/1999/xlink" version="1.1" x="0px" y="0px" viewBox="0 0 1000 1250" style="enable-background:new 0 0 1000 1000;" xml:space="preserve"><g><path d="M920.6,492.1c-5.1-34.5-33.4-67.8-60.7-87.2C795,358.8,686.7,388.1,631.5,439c-31.7,29.2-61.3,63.1-77.8,103.2   c-8,19.5-17.8,38-23.4,58.5c-2.2,8.2-6.2,39-14.4,41.2c-16.2,4.3-1.8-75.7,0.1-90.2c2.2-16.5,2.1-36.6,9.2-51.9   c5.8-12.5,18.8-21.9,29.7-30.3c14.8-11.4,25.7-17.1,26.3-38.7c0.5-16.3-7.4-34.7-22.4-42.1c-4.5-2.2-12.6-8.5-17.4-1.9   c-4.9,6.9,7.5,14.9,9.6,21.3c5.4,16.7-3.3,30.9-19.1,37.3c-9.2,3.7-20.1,5.8-31,5.9c-10.9,0-21.9-2.1-31-5.9   c-15.7-6.4-24.5-20.6-19.1-37.3c2.1-6.4,14.5-14.4,9.6-21.3c-4.8-6.7-12.9-0.3-17.4,1.9c-15,7.4-22.9,25.9-22.5,42.1   c0.6,21.7,11.5,27.3,26.3,38.7c10.8,8.4,23.9,17.8,29.7,30.3c7.1,15.3,6.9,35.4,9.2,51.9c2,14.5,16.3,94.5,0.1,90.2   c-8.1-2.2-12.2-32.9-14.4-41.2c-5.5-20.5-15.4-39-23.4-58.5c-16.5-40.1-46.1-73.9-77.8-103.2c-55.1-50.9-163.5-80.1-228.4-34.1   c-27.4,19.4-55.6,52.7-60.7,87.2c-6.5,43.5,5.4,75.2,35.3,105.4c57.3,58,185.2-10.8,136.1-89.3c-21.2-34-65.1-47.9-93.6-13.7   c-10.8,13-16.7,36.7-4.6,51.7c9,11.2,35.2,14.2,44.8,2c14.5-18.3-11.8-25.9-11.1-40.1c1-18.1,32.3-1.1,37.9,6.1   c21.7,28.1-8.2,68.3-37.9,72.5c-40.7,5.8-72.8-26.4-75.2-66.4c-2.2-37.9,28.2-75.7,61.5-89c32.7-13.1,77.1-4.4,102.4,21.5   c27,27.7,32.6,68.1,31.7,105.4c-1,40.5-22.4,89.4,4.8,125.6c25.6,34.1,68.7,38.5,99.9,7.5c15-14.9,21-31.8,23.4-52.3   c1.3-11.5,3.8-36.3,17.6-20.5c9.9,11.3,10.7,37.4,13.6,51.1c4.9,23.4,8.9,26.5,12.9,50.1c3.6,21.2,7.4,41.3,9,62.8   c1.8,24.8-7.2,16.4-17,1.4c-18.2-28-41.4-55.5-77-60.3c-31.2-4.2-88.3,11.7-71.1,55.4c2,5,8.4,13.3,14.6,12.9   c9.8-0.7,7.7-8.3,9.8-15.4c6.6-21.9,27.8-33.6,49.6-16.8c32.1,24.8-18.5,89.1,27.7,101.3c6.8,1.8,19.6-0.2,25.4-4.1   c5.4-3.6,8.8-15.8,14.7-17c13.9-3,18.4,30.1,34.4,29.4c16.7,0.3,20.5-32.4,34.4-29.4c5.8,1.3,9.3,13.4,14.7,17   c5.9,4,18.6,5.9,25.4,4.1c46.3-12.2-4.3-76.6,27.7-101.3c21.8-16.8,43-5.1,49.6,16.8c2.2,7.1,0,14.7,9.8,15.4   c6.2,0.4,12.6-7.9,14.6-12.9c17.3-43.8-39.9-59.6-71.1-55.4c-35.5,4.7-58.8,32.3-77,60.3c-9.7,15-18.8,23.4-17-1.4   c1.6-21.5,5.3-41.5,9-62.8c4-23.6,8-26.7,12.9-50.1c2.9-13.7,3.7-39.8,13.6-51.1c13.9-15.8,16.3,9,17.6,20.5   c2.4,20.4,8.4,37.4,23.4,52.3c31.2,31,74.3,26.6,99.9-7.5c27.2-36.3,5.8-85.1,4.8-125.6c-0.9-37.3,4.7-77.8,31.7-105.4   c25.3-25.8,69.7-34.5,102.4-21.5c33.3,13.3,63.7,51.1,61.5,89c-2.4,40.1-34.5,72.2-75.2,66.4c-29.7-4.2-59.6-44.5-37.9-72.5   c5.6-7.3,37-24.3,37.9-6.1c0.7,14.2-25.6,21.8-11.1,40.1c9.7,12.2,35.8,9.2,44.8-2c12-15,6.2-38.7-4.6-51.7   c-28.4-34.2-72.3-20.3-93.6,13.7c-49.1,78.5,78.9,147.3,136.1,89.3C915.2,567.3,927.1,535.6,920.6,492.1z M411.7,602.6   c-2.1,17.2-5.3,39.5-20.7,46.7c-21.1,9.9-41.9-23.5-43.9-39.8c-3.3-26.6,5-51.7-0.4-79.5c-5.6-29.2-17.7-55.7-38.5-76.7   c-10-10-40.9-37.2-10-26.4c18,6.3,33.3,18.8,48.3,30.9c37.3,30.2,55.1,81,64.4,127C412.2,590.8,412.4,596.7,411.7,602.6z    M693.3,453.4c-20.9,21-32.9,47.5-38.5,76.7c-5.3,27.8,3,52.8-0.4,79.5c-2,16.2-22.8,49.7-43.9,39.8c-15.4-7.2-18.6-29.6-20.7-46.7   c-0.7-5.9-0.5-11.8,0.7-17.6c9.3-46,27.1-96.8,64.4-127c15-12.2,30.3-24.7,48.3-30.9C734.2,416.2,703.2,443.3,693.3,453.4z"/><path d="M277.7,364.2c10.2,8.5,58.8,28.4,57.1,0.3c-0.9-15.3-31-6.5-40.3-21.1c-11.6-18.1,0.6-41.1,21.6-41.9   c25.2-1,29.7,26,50.4,32.3c7,2.2,18.6,1.3,25-2.7c10.6-6.6,6.8-15.3,12.1-24.1c20.1-33.2,65.7,50.2,73,70.6   c4.1,11.4,5.8,52,15.7,56.6c3.2,1.5,6.2,4.3,8.4,3.4c2.3,0.9,5.2-1.9,8.4-3.4c9.9-4.6,11.6-45.2,15.7-56.6   c7.3-20.4,53-103.8,73-70.6c5.3,8.8,1.4,17.5,12.1,24.1c6.4,4,18,4.8,25,2.7c20.7-6.4,25.2-33.3,50.4-32.3   c21,0.8,33.2,23.8,21.6,41.9c-9.3,14.7-39.4,5.8-40.3,21.1c-1.6,28.2,46.9,8.2,57.1-0.3c12.2-10.1,23.8-33.8,23.2-50   c-8.8-49.1-45.8-83.8-98.2-78.7c-43.6,4.3-82.7,33-105.3,69.4c-5.7,9.2-20,33.4-30.3,22.6c-8.4-8.9,6.5-41.1,12-48.7   c12.1-16.8,28.2-28.7,38.3-47.7c11.6-21.8,8.4-40.3-1-62.3c-7.5-17.4-17.8-30-28.6-45c-11.4-15.8-11.1-33.5-20.1-49.5   c-5.7-10.2-20.3-10.2-26,0c-9,16-8.7,33.6-20.1,49.5c-10.8,15-21.1,27.6-28.6,45c-9.5,21.9-12.7,40.4-1,62.3   c10.1,19,26.2,31,38.3,47.7c5.5,7.6,20.4,39.8,12,48.7C478,338.4,463.7,314.2,458,305c-22.6-36.5-61.7-65.2-105.3-69.4   c-52.4-5.1-89.4,29.6-98.2,78.7C253.9,330.5,265.5,354.1,277.7,364.2z M475.9,227.5c-6.1-20.2-15.9-42.5,10.7-52.9   c5.5-2.1,10.1-2.9,14.1-2.5c4-0.3,8.7,0.4,14.1,2.5c26.6,10.3,16.8,32.7,10.7,52.9c-3.2,10.6-24.8,47.5-24.8,47.5   S479.1,238.1,475.9,227.5z"/><path d="M500.7,880.3c-15.1,0-27.3,12.2-27.3,27.3s12.2,27.3,27.3,27.3s27.3-12.2,27.3-27.3S515.8,880.3,500.7,880.3z"/></g><text x="0" y="1015" fill="#000000" font-size="5px" font-weight="bold" font-family="'Helvetica Neue', Helvetica, Arial-Unicode, Arial, Sans-serif"></text><text x="0" y="1020" fill="#000000" font-size="5px" font-weight="bold" font-family="'Helvetica Neue', Helvetica, Arial-Unicode, Arial, Sans-serif"></text></svg>